<svg xmlns="http://www.w3.org/2000/svg" width="200" height="200" viewBox="0 0 44 44" fill="none">
  <rect width="44" height="44" rx="12" fill="#FFFDE7"/>
  <circle cx="22" cy="13" r="5" fill="#FFD54F"/>
  <line x1="22" y1="5"  x2="22" y2="3"  stroke="#FFD54F" stroke-width="2" stroke-linecap="round"/>
  <line x1="22" y1="23" x2="22" y2="21" stroke="#FFD54F" stroke-width="2" stroke-linecap="round"/>
  <line x1="14" y1="13" x2="12" y2="13" stroke="#FFD54F" stroke-width="2" stroke-linecap="round"/>
  <line x1="32" y1="13" x2="30" y2="13" stroke="#FFD54F" stroke-width="2" stroke-linecap="round"/>
  <line x1="16.5" y1="7.5"  x2="15.1" y2="6.1"  stroke="#FFD54F" stroke-width="2" stroke-linecap="round"/>
  <line x1="28.9" y1="19.9" x2="27.5" y2="18.5" stroke="#FFD54F" stroke-width="2" stroke-linecap="round"/>
  <line x1="27.5" y1="7.5"  x2="28.9" y2="6.1"  stroke="#FFD54F" stroke-width="2" stroke-linecap="round"/>
  <line x1="15.1" y1="19.9" x2="16.5" y2="18.5" stroke="#FFD54F" stroke-width="2" stroke-linecap="round"/>
  <line x1="22" y1="38" x2="22" y2="26" stroke="#81C784" stroke-width="2.5" stroke-linecap="round"/>
  <path d="M22 32 C18 30 15 27 17 24 C19 21 22 26 22 28" fill="#81C784"/>
  <path d="M22 30 C26 28 29 25 27 22 C25 19 22 24 22 26" fill="#A5D6A7"/>
</svg>
