<svg xmlns="http://www.w3.org/2000/svg" viewBox="0 0 800 450">
  <defs>
    <linearGradient id="bg" x1="0" y1="0" x2="1" y2="1">
      <stop offset="0" stop-color="#A8DCC9"/><stop offset="1" stop-color="#6FBFA5"/>
    </linearGradient>
    <radialGradient id="glow" cx="0.72" cy="0.28" r="0.75">
      <stop offset="0" stop-color="#ffffff" stop-opacity="0.35"/><stop offset="1" stop-color="#ffffff" stop-opacity="0"/>
    </radialGradient>
    
    <linearGradient id="leafM" x1="0" y1="0" x2="1" y2="1"><stop offset="0" stop-color="#9BE0B8"/><stop offset="1" stop-color="#4FA87A"/></linearGradient>

  </defs>
  <rect width="800" height="450" fill="url(#bg)"/>
  <rect width="800" height="450" fill="url(#glow)"/>
  
  <ellipse cx="400" cy="392" rx="260" ry="28" fill="#1E5A44" opacity="0.16"/>
  <path d="M 400 320 C 320 260 300 170 380 110 C 460 170 440 260 400 320 Z" fill="url(#leafM)"/>
  <path d="M 400 320 L 400 200" stroke="#2E7A54" stroke-width="5" fill="none" stroke-linecap="round"/>
  <path d="M 400 250 Q 340 235 340 200" stroke="#2E7A54" stroke-width="3" fill="none" stroke-linecap="round" opacity="0.6"/>
  <path d="M 400 220 Q 460 205 460 170" stroke="#2E7A54" stroke-width="3" fill="none" stroke-linecap="round" opacity="0.6"/>
  <path d="M 540 260 C 540 235 570 220 588 240 C 606 220 636 235 636 260 C 636 290 588 320 588 320 C 588 320 540 290 540 260 Z" fill="#F2A6B8"/>
  <path d="M 230 137 L 233.64 146.36 L 243 150 L 233.64 153.64 L 230 163 L 226.36 153.64 L 217 150 L 226.36 146.36 Z" fill="#ffffff" opacity="0.85"/><path d="M 600 140 L 602.8 147.2 L 610 150 L 602.8 152.8 L 600 160 L 597.2 152.8 L 590 150 L 597.2 147.2 Z" fill="#ffffff" opacity="0.7"/>
</svg>