<svg xmlns="http://www.w3.org/2000/svg" viewBox="0 0 800 450">
  <defs>
    <linearGradient id="bg" x1="0" y1="0" x2="1" y2="1">
      <stop offset="0" stop-color="#A8DCC9"/><stop offset="1" stop-color="#6FBFA5"/>
    </linearGradient>
    <radialGradient id="glow" cx="0.72" cy="0.28" r="0.75">
      <stop offset="0" stop-color="#ffffff" stop-opacity="0.35"/><stop offset="1" stop-color="#ffffff" stop-opacity="0"/>
    </radialGradient>
    
    <linearGradient id="tankg" x1="0" y1="0" x2="0" y2="1"><stop offset="0" stop-color="#BEE7F5"/><stop offset="1" stop-color="#6BB8D6"/></linearGradient>

  </defs>
  <rect width="800" height="450" fill="url(#bg)"/>
  <rect width="800" height="450" fill="url(#glow)"/>
  
  <ellipse cx="400" cy="392" rx="260" ry="28" fill="#1E4A5A" opacity="0.16"/>
  <rect x="220" y="150" width="360" height="200" rx="26" fill="url(#tankg)" stroke="#fff" stroke-width="6" opacity="0.95"/>
  <path d="M 260 320 Q 320 300 380 320 T 500 320 T 560 320" stroke="#3D8F6B" stroke-width="8" fill="none" stroke-linecap="round" opacity="0.7"/>
  <g transform="translate(360 240)"><ellipse cx="0" cy="0" rx="34" ry="20" fill="#F2896B"/><path d="M -30 0 L -52 -16 L -52 16 Z" fill="#E8788A"/><circle cx="14" cy="-4" r="3" fill="#2A1A12"/></g>
  <g transform="translate(460 270) scale(0.8)"><ellipse cx="0" cy="0" rx="34" ry="20" fill="#7FB9E8"/><path d="M -30 0 L -52 -16 L -52 16 Z" fill="#5C9EDB"/><circle cx="14" cy="-4" r="3" fill="#2A1A12"/></g>
  <circle cx="500" cy="190" r="7" fill="#fff" opacity="0.8"/><circle cx="520" cy="220" r="5" fill="#fff" opacity="0.7"/><circle cx="480" cy="170" r="4" fill="#fff" opacity="0.7"/>
  <path d="M 600 108 L 603.36 116.64 L 612 120 L 603.36 123.36 L 600 132 L 596.64 123.36 L 588 120 L 596.64 116.64 Z" fill="#ffffff" opacity="0.7"/>
</svg>