<svg xmlns="http://www.w3.org/2000/svg" viewBox="0 0 800 450">
  <defs>
    <linearGradient id="bg" x1="0" y1="0" x2="1" y2="1">
      <stop offset="0" stop-color="#BFE8CC"/><stop offset="1" stop-color="#7FCBA0"/>
    </linearGradient>
    <radialGradient id="glow" cx="0.72" cy="0.28" r="0.75">
      <stop offset="0" stop-color="#ffffff" stop-opacity="0.35"/><stop offset="1" stop-color="#ffffff" stop-opacity="0"/>
    </radialGradient>
    
    <linearGradient id="bottle" x1="0" y1="0" x2="0" y2="1"><stop offset="0" stop-color="#FFFFFF"/><stop offset="1" stop-color="#DFF3E6"/></linearGradient>
    <linearGradient id="leafH" x1="0" y1="0" x2="1" y2="1"><stop offset="0" stop-color="#8FD3A8"/><stop offset="1" stop-color="#4E9A6C"/></linearGradient>

  </defs>
  <rect width="800" height="450" fill="url(#bg)"/>
  <rect width="800" height="450" fill="url(#glow)"/>
  
  <ellipse cx="380" cy="392" rx="260" ry="28" fill="#2E5A3E" opacity="0.15"/>
  <g transform="translate(330 260)">
    <rect x="-45" y="-110" width="90" height="140" rx="18" fill="url(#bottle)" stroke="#BFE3CC" stroke-width="3"/>
    <rect x="-30" y="-140" width="60" height="34" rx="8" fill="#5FAE7C"/>
    <circle cx="-14" cy="-40" r="8" fill="#E8788A"/><circle cx="14" cy="-14" r="8" fill="#F2C265"/><circle cx="0" cy="10" r="8" fill="#7FB9E8"/>
  </g>
  <path d="M 470 230 Q 500 150 460 90 Q 430 150 470 230 Z" fill="url(#leafH)"/>
  <path d="M 470 230 L 470 130" stroke="#3D7A54" stroke-width="4" stroke-linecap="round"/>
  <g transform="translate(560 200) rotate(18)">
    <circle cx="0" cy="0" r="60" fill="none" stroke="#3D5A48" stroke-width="14"/>
    <circle cx="0" cy="0" r="60" fill="#EAF7EF" opacity="0.55"/>
    <line x1="42" y1="42" x2="92" y2="92" stroke="#3D5A48" stroke-width="16" stroke-linecap="round"/>
  </g>
  <path d="M 200 87 L 203.64 96.36 L 213 100 L 203.64 103.64 L 200 113 L 196.36 103.64 L 187 100 L 196.36 96.36 Z" fill="#ffffff" opacity="0.85"/>
</svg>