<svg xmlns="http://www.w3.org/2000/svg" viewBox="0 0 800 450">
  <defs>
    <linearGradient id="bg" x1="0" y1="0" x2="1" y2="1">
      <stop offset="0" stop-color="#FF9AA2"/><stop offset="1" stop-color="#E63946"/>
    </linearGradient>
    <radialGradient id="glow" cx="0.72" cy="0.28" r="0.75">
      <stop offset="0" stop-color="#ffffff" stop-opacity="0.35"/><stop offset="1" stop-color="#ffffff" stop-opacity="0"/>
    </radialGradient>
    
    <linearGradient id="mic" x1="0" y1="0" x2="0" y2="1"><stop offset="0" stop-color="#4A4A5A"/><stop offset="1" stop-color="#232330"/></linearGradient>

  </defs>
  <rect width="800" height="450" fill="url(#bg)"/>
  <rect width="800" height="450" fill="url(#glow)"/>
  
  <ellipse cx="400" cy="392" rx="260" ry="28" fill="#5A1E1E" opacity="0.16"/>
  <g transform="translate(330 250)">
    <rect x="-34" y="-140" width="68" height="120" rx="34" fill="url(#mic)"/>
    <path d="M -60 -30 Q -60 40 0 40 Q 60 40 60 -30" stroke="#E8788A" stroke-width="8" fill="none" stroke-linecap="round"/>
    <line x1="0" y1="40" x2="0" y2="90" stroke="#E8788A" stroke-width="8" stroke-linecap="round"/>
    <line x1="-36" y1="90" x2="36" y2="90" stroke="#E8788A" stroke-width="8" stroke-linecap="round"/>
  </g>
  <g transform="translate(530 130)"><rect x="-56" y="-34" width="112" height="60" rx="20" fill="#fff"/><path d="M -20 26 L -34 48 L 2 28 Z" fill="#fff"/></g>
  <g transform="translate(600 240)"><rect x="-50" y="-30" width="100" height="54" rx="18" fill="#F5C265"/><path d="M 30 24 L 44 44 L 6 26 Z" fill="#F5C265"/></g>
  <path d="M 220 118 L 223.36 126.64 L 232 130 L 223.36 133.36 L 220 142 L 216.64 133.36 L 208 130 L 216.64 126.64 Z" fill="#ffffff" opacity="0.7"/>
</svg>