<svg xmlns="http://www.w3.org/2000/svg" viewBox="0 0 800 450">
  <defs>
    <linearGradient id="bg" x1="0" y1="0" x2="1" y2="1">
      <stop offset="0" stop-color="#FFD98A"/><stop offset="1" stop-color="#FFB347"/>
    </linearGradient>
    <radialGradient id="glow" cx="0.72" cy="0.28" r="0.75">
      <stop offset="0" stop-color="#ffffff" stop-opacity="0.35"/><stop offset="1" stop-color="#ffffff" stop-opacity="0"/>
    </radialGradient>
    
    <linearGradient id="facegag" x1="0" y1="0" x2="0" y2="1"><stop offset="0" stop-color="#FFE3A6"/><stop offset="1" stop-color="#F5B84A"/></linearGradient>

  </defs>
  <rect width="800" height="450" fill="url(#bg)"/>
  <rect width="800" height="450" fill="url(#glow)"/>
  
  <ellipse cx="400" cy="392" rx="260" ry="28" fill="#8A5A1E" opacity="0.16"/>
  <circle cx="330" cy="240" r="110" fill="url(#facegag)"/>
  <ellipse cx="292" cy="215" rx="12" ry="16" fill="#5C3A1E"/><ellipse cx="368" cy="215" rx="12" ry="16" fill="#5C3A1E"/>
  <path d="M 280 270 Q 330 320 380 270" stroke="#5C3A1E" stroke-width="10" fill="none" stroke-linecap="round"/>
  <g transform="translate(540 150)">
    <rect x="-70" y="-46" width="140" height="86" rx="26" fill="#fff"/>
    <path d="M -20 40 L -36 66 L 4 42 Z" fill="#fff"/>
    <text x="0" y="14" font-size="46" text-anchor="middle" font-weight="900" fill="#F5A800" font-family="sans-serif">?!</text>
  </g>
  <path d="M 560 286 L 563.92 296.08 L 574 300 L 563.92 303.92 L 560 314 L 556.08 303.92 L 546 300 L 556.08 296.08 Z" fill="#ffffff" opacity="0.85"/><path d="M 200 110 L 202.8 117.2 L 210 120 L 202.8 122.8 L 200 130 L 197.2 122.8 L 190 120 L 197.2 117.2 Z" fill="#ffffff" opacity="0.7"/>
</svg>