<svg xmlns="http://www.w3.org/2000/svg" viewBox="0 0 800 450">
  <defs>
    <linearGradient id="bg" x1="0" y1="0" x2="1" y2="1">
      <stop offset="0" stop-color="#FFD9B8"/><stop offset="1" stop-color="#FF9E7A"/>
    </linearGradient>
    <radialGradient id="glow" cx="0.72" cy="0.28" r="0.75">
      <stop offset="0" stop-color="#ffffff" stop-opacity="0.35"/><stop offset="1" stop-color="#ffffff" stop-opacity="0"/>
    </radialGradient>
    
    <linearGradient id="book" x1="0" y1="0" x2="0" y2="1"><stop offset="0" stop-color="#FFF6EC"/><stop offset="1" stop-color="#FCE3C8"/></linearGradient>
    <linearGradient id="pen" x1="0" y1="0" x2="1" y2="1"><stop offset="0" stop-color="#D98A52"/><stop offset="1" stop-color="#A8582A"/></linearGradient>

  </defs>
  <rect width="800" height="450" fill="url(#bg)"/>
  <rect width="800" height="450" fill="url(#glow)"/>
  
  <ellipse cx="400" cy="390" rx="280" ry="30" fill="#7A3B1E" opacity="0.15"/>
  <g transform="translate(400 235) rotate(-6)">
    <rect x="-190" y="-115" width="380" height="230" rx="14" fill="url(#book)" stroke="#E8B98A" stroke-width="3"/>
    <line x1="0" y1="-115" x2="0" y2="115" stroke="#E8B98A" stroke-width="3"/>
    <g stroke="#C99A6E" stroke-width="3" stroke-linecap="round" opacity="0.75">
      <line x1="-150" y1="-60" x2="-40" y2="-60"/><line x1="-150" y1="-30" x2="-60" y2="-30"/><line x1="-150" y1="0" x2="-30" y2="0"/>
      <line x1="30" y1="-60" x2="150" y2="-60"/><line x1="30" y1="-30" x2="140" y2="-30"/><line x1="30" y1="0" x2="150" y2="0"/><line x1="30" y1="30" x2="110" y2="30"/>
    </g>
  </g>
  <g transform="translate(560 130) rotate(38)">
    <rect x="-9" y="-10" width="18" height="150" rx="7" fill="url(#pen)"/>
    <path d="M -9 140 L 0 168 L 9 140 Z" fill="#5C2E12"/>
    <rect x="-9" y="-10" width="18" height="26" rx="6" fill="#F0C879"/>
  </g>
  <path d="M 610 54 L 614.48 65.52 L 626 70 L 614.48 74.48 L 610 86 L 605.52 74.48 L 594 70 L 605.52 65.52 Z" fill="#ffffff" opacity="0.85"/><path d="M 180 99 L 183.08 106.92 L 191 110 L 183.08 113.08 L 180 121 L 176.92 113.08 L 169 110 L 176.92 106.92 Z" fill="#ffffff" opacity="0.7"/>
</svg>