<svg xmlns="http://www.w3.org/2000/svg" viewBox="0 0 800 450">
  <defs>
    <linearGradient id="bg" x1="0" y1="0" x2="1" y2="1">
      <stop offset="0" stop-color="#B39DDB"/><stop offset="1" stop-color="#7E57C2"/>
    </linearGradient>
    <radialGradient id="glow" cx="0.72" cy="0.28" r="0.75">
      <stop offset="0" stop-color="#ffffff" stop-opacity="0.35"/><stop offset="1" stop-color="#ffffff" stop-opacity="0"/>
    </radialGradient>
    
    <linearGradient id="flask" x1="0" y1="0" x2="0" y2="1"><stop offset="0" stop-color="#EFE6FF"/><stop offset="1" stop-color="#C9B3EC"/></linearGradient>
    <linearGradient id="liquid" x1="0" y1="0" x2="0" y2="1"><stop offset="0" stop-color="#F2A6C8"/><stop offset="1" stop-color="#B968A8"/></linearGradient>

  </defs>
  <rect width="800" height="450" fill="url(#bg)"/>
  <rect width="800" height="450" fill="url(#glow)"/>
  
  <ellipse cx="400" cy="392" rx="260" ry="28" fill="#3D1E5A" opacity="0.18"/>
  <g transform="translate(370 240)">
    <rect x="-16" y="-130" width="32" height="50" fill="url(#flask)"/>
    <path d="M -16 -80 L -70 60 Q -70 90 -30 90 L 30 90 Q 70 90 70 60 L 16 -80 Z" fill="url(#flask)" stroke="#9B7FD4" stroke-width="4"/>
    <path d="M -46 20 Q 0 0 46 20 L 30 90 Q 70 90 70 60 L 16 -80 L -16 -80 L -70 60 Q -70 90 -30 90 Z" fill="url(#liquid)" opacity="0.85"/>
    <circle cx="0" cy="40" r="8" fill="#fff" opacity="0.5"/><circle cx="20" cy="60" r="5" fill="#fff" opacity="0.5"/>
  </g>
  <path d="M 560 150 C 560 130 582 118 596 134 C 610 118 632 130 632 150 C 632 174 596 198 596 198 C 596 198 560 174 560 150 Z" fill="#F2A6B8"/>
  <path d="M 230 127 L 233.64 136.36 L 243 140 L 233.64 143.64 L 230 153 L 226.36 143.64 L 217 140 L 226.36 136.36 Z" fill="#ffffff" opacity="0.85"/><path d="M 610 250 L 612.8 257.2 L 620 260 L 612.8 262.8 L 610 270 L 607.2 262.8 L 600 260 L 607.2 257.2 Z" fill="#ffffff" opacity="0.7"/>
</svg>