<svg xmlns="http://www.w3.org/2000/svg" viewBox="0 0 800 450">
  <defs>
    <linearGradient id="bg" x1="0" y1="0" x2="1" y2="1">
      <stop offset="0" stop-color="#C4D6FF"/><stop offset="1" stop-color="#9DB6F5"/>
    </linearGradient>
    <radialGradient id="glow" cx="0.72" cy="0.28" r="0.75">
      <stop offset="0" stop-color="#ffffff" stop-opacity="0.35"/><stop offset="1" stop-color="#ffffff" stop-opacity="0"/>
    </radialGradient>
    
    <linearGradient id="stick" x1="0" y1="0" x2="0" y2="1"><stop offset="0" stop-color="#FF6B6B"/><stop offset="1" stop-color="#D63E3E"/></linearGradient>
    <linearGradient id="base" x1="0" y1="0" x2="0" y2="1"><stop offset="0" stop-color="#3A4A6B"/><stop offset="1" stop-color="#232D45"/></linearGradient>

  </defs>
  <rect width="800" height="450" fill="url(#bg)"/>
  <rect width="800" height="450" fill="url(#glow)"/>
  
  <ellipse cx="400" cy="392" rx="270" ry="28" fill="#1B2338" opacity="0.18"/>
  <g transform="translate(300 250)">
    <rect x="-110" y="20" width="220" height="70" rx="24" fill="url(#base)"/>
    <rect x="-16" y="-90" width="32" height="120" rx="14" fill="#8A94AC"/>
    <circle cx="0" cy="-100" r="34" fill="url(#stick)" stroke="#fff" stroke-width="4"/>
    <circle cx="70" cy="46" r="20" fill="#5FD3A0" stroke="#2E8A63" stroke-width="4"/>
    <circle cx="120" cy="60" r="20" fill="#F2C265" stroke="#B9862E" stroke-width="4"/>
  </g>
  <g transform="translate(590 150)" opacity="0.95">
    <rect x="-46" y="-46" width="92" height="92" rx="18" fill="#fff"/>
    <text x="0" y="16" font-size="52" text-anchor="middle" font-family="sans-serif">🕹️</text>
  </g>
  <path d="M 560 286 L 563.92 296.08 L 574 300 L 563.92 303.92 L 560 314 L 556.08 303.92 L 546 300 L 556.08 296.08 Z" fill="#ffffff" opacity="0.85"/><path d="M 660 80 L 662.8 87.2 L 670 90 L 662.8 92.8 L 660 100 L 657.2 92.8 L 650 90 L 657.2 87.2 Z" fill="#ffffff" opacity="0.7"/>
</svg>