<?xml version="1.0" encoding="utf-8"?>
<svg xmlns="http://www.w3.org/2000/svg" width="490" height="490" class="segno"><g transform="scale(14)"><path fill="#fff" d="M0 0h35v35h-35z"/><path class="qrline" stroke="#1f2a1a" d="M3 3.5h7m3 0h2m1 0h3m1 0h4m1 0h7m-29 1h1m5 0h1m6 0h2m1 0h4m2 0h1m5 0h1m-29 1h1m1 0h3m1 0h1m1 0h1m1 0h4m2 0h1m2 0h2m1 0h1m1 0h3m1 0h1m-29 1h1m1 0h3m1 0h1m1 0h3m1 0h1m1 0h1m2 0h1m1 0h1m2 0h1m1 0h3m1 0h1m-29 1h1m1 0h3m1 0h1m2 0h1m1 0h1m1 0h3m1 0h3m2 0h1m1 0h3m1 0h1m-29 1h1m5 0h1m5 0h3m1 0h3m1 0h1m1 0h1m5 0h1m-29 1h7m1 0h1m1 0h1m1 0h1m1 0h1m1 0h1m1 0h1m1 0h1m1 0h7m-20 1h2m3 0h1m1 0h1m1 0h3m-18 1h2m1 0h2m1 0h4m1 0h3m1 0h2m5 0h2m-25 1h4m1 0h1m1 0h1m1 0h1m1 0h1m1 0h1m1 0h3m3 0h3m1 0h1m-26 1h5m1 0h1m1 0h2m2 0h1m1 0h1m4 0h3m1 0h1m-26 1h2m1 0h2m4 0h2m3 0h1m4 0h2m3 0h2m2 0h1m-29 1h3m3 0h5m2 0h3m1 0h1m2 0h3m2 0h1m1 0h1m-28 1h2m1 0h3m1 0h1m1 0h2m1 0h2m1 0h1m1 0h2m3 0h1m1 0h1m1 0h1m1 0h1m-29 1h2m2 0h4m2 0h1m3 0h1m2 0h3m2 0h2m1 0h1m2 0h1m-27 1h1m4 0h2m2 0h1m1 0h1m2 0h3m2 0h2m1 0h3m-27 1h1m2 0h1m2 0h4m4 0h1m2 0h1m2 0h2m1 0h1m1 0h1m1 0h1m-28 1h2m1 0h3m4 0h2m7 0h2m3 0h3m-27 1h2m1 0h1m2 0h1m6 0h1m1 0h1m1 0h1m1 0h1m4 0h1m1 0h1m1 0h1m-29 1h4m1 0h1m1 0h3m1 0h2m2 0h4m1 0h3m3 0h3m-29 1h2m1 0h1m1 0h3m2 0h1m1 0h1m3 0h1m1 0h9m1 0h1m-21 1h2m1 0h1m8 0h1m3 0h3m-27 1h7m1 0h4m3 0h1m1 0h1m1 0h2m1 0h1m1 0h1m1 0h1m-27 1h1m5 0h1m5 0h2m1 0h1m1 0h4m3 0h2m1 0h2m-29 1h1m1 0h3m1 0h1m1 0h4m2 0h1m1 0h1m2 0h6m2 0h1m-28 1h1m1 0h3m1 0h1m1 0h1m1 0h1m4 0h1m1 0h1m5 0h1m3 0h1m-28 1h1m1 0h3m1 0h1m5 0h1m1 0h1m5 0h2m1 0h3m1 0h2m-29 1h1m5 0h1m2 0h2m3 0h2m1 0h2m2 0h1m2 0h3m1 0h1m-29 1h7m3 0h5m1 0h9"/></g></svg>
